<svg width="224" height="504" viewBox="0 0 224 504" fill="none" xmlns="http://www.w3.org/2000/svg">
<path d="M42.3137 7.08V10.824H35.5457V13.8H40.5377V17.376H35.5457V24H30.8417V7.08H42.3137ZM50.9188 7.08V24H46.2148V7.08H50.9188ZM71.1896 24H66.4856L60.2216 14.544V24H55.5176V7.08H60.2216L66.4856 16.656V7.08H71.1896V24ZM80.4932 10.848V13.608H85.8932V17.184H80.4932V20.232H86.6132V24H75.7892V7.08H86.6132V10.848H80.4932ZM94.0496 12.744C94.5136 12.104 95.1456 11.584 95.9456 11.184C96.7616 10.768 97.6656 10.56 98.6576 10.56C99.8256 10.56 100.882 10.84 101.826 11.4C102.77 11.96 103.514 12.76 104.058 13.8C104.602 14.824 104.874 16 104.874 17.328C104.874 18.656 104.602 19.848 104.058 20.904C103.514 21.944 102.762 22.76 101.802 23.352C100.858 23.928 99.8096 24.216 98.6576 24.216C97.6336 24.216 96.7216 24.016 95.9216 23.616C95.1376 23.216 94.5136 22.704 94.0496 22.08V24H91.3136V6.24H94.0496V12.744ZM102.09 17.328C102.09 16.416 101.898 15.632 101.514 14.976C101.146 14.304 100.65 13.8 100.026 13.464C99.4176 13.112 98.7616 12.936 98.0576 12.936C97.3696 12.936 96.7136 13.112 96.0896 13.464C95.4816 13.816 94.9856 14.328 94.6016 15C94.2336 15.672 94.0496 16.464 94.0496 17.376C94.0496 18.288 94.2336 19.088 94.6016 19.776C94.9856 20.448 95.4816 20.96 96.0896 21.312C96.7136 21.664 97.3696 21.84 98.0576 21.84C98.7616 21.84 99.4176 21.664 100.026 21.312C100.65 20.944 101.146 20.416 101.514 19.728C101.898 19.04 102.09 18.24 102.09 17.328ZM108.587 17.328C108.587 16 108.859 14.824 109.403 13.8C109.963 12.776 110.715 11.984 111.659 11.424C112.619 10.848 113.675 10.56 114.827 10.56C115.867 10.56 116.771 10.768 117.539 11.184C118.323 11.584 118.947 12.088 119.411 12.696V10.776H122.171V24H119.411V22.032C118.947 22.656 118.315 23.176 117.515 23.592C116.715 24.008 115.803 24.216 114.779 24.216C113.643 24.216 112.603 23.928 111.659 23.352C110.715 22.76 109.963 21.944 109.403 20.904C108.859 19.848 108.587 18.656 108.587 17.328ZM119.411 17.376C119.411 16.464 119.219 15.672 118.835 15C118.467 14.328 117.979 13.816 117.371 13.464C116.763 13.112 116.107 12.936 115.403 12.936C114.699 12.936 114.043 13.112 113.435 13.464C112.827 13.8 112.331 14.304 111.947 14.976C111.579 15.632 111.395 16.416 111.395 17.328C111.395 18.24 111.579 19.04 111.947 19.728C112.331 20.416 112.827 20.944 113.435 21.312C114.059 21.664 114.715 21.84 115.403 21.84C116.107 21.84 116.763 21.664 117.371 21.312C117.979 20.96 118.467 20.448 118.835 19.776C119.219 19.088 119.411 18.288 119.411 17.376ZM134.357 10.56C135.397 10.56 136.325 10.776 137.141 11.208C137.973 11.64 138.621 12.28 139.085 13.128C139.549 13.976 139.781 15 139.781 16.2V24H137.069V16.608C137.069 15.424 136.773 14.52 136.181 13.896C135.589 13.256 134.781 12.936 133.757 12.936C132.733 12.936 131.917 13.256 131.309 13.896C130.717 14.52 130.421 15.424 130.421 16.608V24H127.685V10.776H130.421V12.288C130.869 11.744 131.437 11.32 132.125 11.016C132.829 10.712 133.573 10.56 134.357 10.56ZM150.423 17.4L156.519 24H152.823L147.927 18.312V24H145.191V6.24H147.927V16.56L152.727 10.776H156.519L150.423 17.4ZM161.504 24.168C161.008 24.168 160.592 24 160.256 23.664C159.92 23.328 159.752 22.912 159.752 22.416C159.752 21.92 159.92 21.504 160.256 21.168C160.592 20.832 161.008 20.664 161.504 20.664C161.984 20.664 162.392 20.832 162.728 21.168C163.064 21.504 163.232 21.92 163.232 22.416C163.232 22.912 163.064 23.328 162.728 23.664C162.392 24 161.984 24.168 161.504 24.168ZM172.357 7.08V24H167.653V7.08H172.357ZM185.068 24.168C183.484 24.168 182.028 23.8 180.7 23.064C179.372 22.312 178.316 21.28 177.532 19.968C176.764 18.64 176.38 17.144 176.38 15.48C176.38 13.816 176.764 12.328 177.532 11.016C178.316 9.688 179.372 8.656 180.7 7.92C182.028 7.184 183.484 6.816 185.068 6.816C186.668 6.816 188.124 7.184 189.436 7.92C190.764 8.656 191.812 9.688 192.58 11.016C193.348 12.328 193.732 13.816 193.732 15.48C193.732 17.144 193.348 18.64 192.58 19.968C191.812 21.28 190.764 22.312 189.436 23.064C188.108 23.8 186.652 24.168 185.068 24.168ZM185.068 19.8C186.268 19.8 187.212 19.408 187.9 18.624C188.604 17.84 188.956 16.792 188.956 15.48C188.956 14.136 188.604 13.08 187.9 12.312C187.212 11.528 186.268 11.136 185.068 11.136C183.852 11.136 182.9 11.528 182.212 12.312C181.524 13.08 181.18 14.136 181.18 15.48C181.18 16.808 181.524 17.864 182.212 18.648C182.9 19.416 183.852 19.8 185.068 19.8Z" fill="white"/>
<rect y="72" width="224" height="48" rx="4" fill="#299D91"/>
<path d="M37 98H30V105H37V98Z" stroke="white" stroke-width="2" stroke-linecap="round" stroke-linejoin="round"/>
<path d="M26 98H19V105H26V98Z" stroke="white" stroke-width="2" stroke-linecap="round" stroke-linejoin="round"/>
<path d="M37 87H30V94H37V87Z" stroke="white" stroke-width="2" stroke-linecap="round" stroke-linejoin="round"/>
<path d="M26 87H19V94H26V87Z" stroke="white" stroke-width="2" stroke-linecap="round" stroke-linejoin="round"/>
<path d="M63.5455 96.1818C63.5455 97.4356 63.3106 98.5095 62.8409 99.4034C62.375 100.294 61.7386 100.975 60.9318 101.449C60.1288 101.922 59.2178 102.159 58.1989 102.159C57.1799 102.159 56.267 101.922 55.4602 101.449C54.6572 100.972 54.0208 100.288 53.5511 99.3977C53.0852 98.5038 52.8523 97.4318 52.8523 96.1818C52.8523 94.928 53.0852 93.8561 53.5511 92.9659C54.0208 92.072 54.6572 91.3883 55.4602 90.9148C56.267 90.4413 57.1799 90.2045 58.1989 90.2045C59.2178 90.2045 60.1288 90.4413 60.9318 90.9148C61.7386 91.3883 62.375 92.072 62.8409 92.9659C63.3106 93.8561 63.5455 94.928 63.5455 96.1818ZM61.4261 96.1818C61.4261 95.2992 61.2879 94.5549 61.0114 93.9489C60.7386 93.339 60.3598 92.8788 59.875 92.5682C59.3902 92.2538 58.8314 92.0966 58.1989 92.0966C57.5663 92.0966 57.0076 92.2538 56.5227 92.5682C56.0379 92.8788 55.6572 93.339 55.3807 93.9489C55.108 94.5549 54.9716 95.2992 54.9716 96.1818C54.9716 97.0644 55.108 97.8106 55.3807 98.4205C55.6572 99.0265 56.0379 99.4867 56.5227 99.8011C57.0076 100.112 57.5663 100.267 58.1989 100.267C58.8314 100.267 59.3902 100.112 59.875 99.8011C60.3598 99.4867 60.7386 99.0265 61.0114 98.4205C61.2879 97.8106 61.4261 97.0644 61.4261 96.1818ZM73.2429 93.2727L70.1349 102H67.8622L64.7543 93.2727H66.9474L68.9531 99.7557H69.044L71.0554 93.2727H73.2429ZM78.233 102.17C77.358 102.17 76.6023 101.989 75.9659 101.625C75.3333 101.258 74.8466 100.739 74.5057 100.068C74.1648 99.3939 73.9943 98.6004 73.9943 97.6875C73.9943 96.7898 74.1648 96.0019 74.5057 95.3239C74.8504 94.642 75.3314 94.1117 75.9489 93.733C76.5663 93.3504 77.2917 93.1591 78.125 93.1591C78.6629 93.1591 79.1705 93.2462 79.6477 93.4205C80.1288 93.5909 80.553 93.8561 80.9205 94.2159C81.2917 94.5758 81.5833 95.0341 81.7955 95.5909C82.0076 96.1439 82.1136 96.803 82.1136 97.5682V98.1989H74.9602V96.8125H80.142C80.1383 96.4186 80.053 96.0682 79.8864 95.7614C79.7197 95.4508 79.4867 95.2064 79.1875 95.0284C78.892 94.8504 78.5473 94.7614 78.1534 94.7614C77.733 94.7614 77.3636 94.8636 77.0455 95.0682C76.7273 95.2689 76.4792 95.5341 76.3011 95.8636C76.1269 96.1894 76.0379 96.5473 76.0341 96.9375V98.1477C76.0341 98.6553 76.1269 99.0909 76.3125 99.4545C76.4981 99.8144 76.7576 100.091 77.0909 100.284C77.4242 100.473 77.8144 100.568 78.2614 100.568C78.5606 100.568 78.8314 100.527 79.0739 100.443C79.3163 100.356 79.5265 100.229 79.7045 100.062C79.8826 99.8958 80.017 99.6894 80.108 99.4432L82.0284 99.6591C81.9072 100.167 81.6761 100.61 81.3352 100.989C80.9981 101.364 80.5663 101.655 80.0398 101.864C79.5133 102.068 78.911 102.17 78.233 102.17ZM83.8537 102V93.2727H85.848V94.7273H85.9389C86.098 94.2235 86.3707 93.8352 86.7571 93.5625C87.1473 93.286 87.5923 93.1477 88.0923 93.1477C88.206 93.1477 88.3329 93.1534 88.473 93.1648C88.617 93.1723 88.7363 93.1856 88.831 93.2045V95.0966C88.7438 95.0663 88.6056 95.0398 88.4162 95.017C88.2306 94.9905 88.0507 94.9773 87.8764 94.9773C87.5014 94.9773 87.1643 95.0587 86.8651 95.2216C86.5696 95.3807 86.3366 95.6023 86.1662 95.8864C85.9957 96.1705 85.9105 96.4981 85.9105 96.8693V102H83.8537ZM98.2585 93.2727L95.1506 102H92.8778L89.7699 93.2727H91.9631L93.9688 99.7557H94.0597L96.071 93.2727H98.2585ZM99.6818 102V93.2727H101.739V102H99.6818ZM100.716 92.0341C100.39 92.0341 100.11 91.9261 99.875 91.7102C99.6402 91.4905 99.5227 91.2273 99.5227 90.9205C99.5227 90.6098 99.6402 90.3466 99.875 90.1307C100.11 89.911 100.39 89.8011 100.716 89.8011C101.045 89.8011 101.326 89.911 101.557 90.1307C101.792 90.3466 101.909 90.6098 101.909 90.9205C101.909 91.2273 101.792 91.4905 101.557 91.7102C101.326 91.9261 101.045 92.0341 100.716 92.0341ZM107.717 102.17C106.842 102.17 106.087 101.989 105.45 101.625C104.818 101.258 104.331 100.739 103.99 100.068C103.649 99.3939 103.479 98.6004 103.479 97.6875C103.479 96.7898 103.649 96.0019 103.99 95.3239C104.335 94.642 104.816 94.1117 105.433 93.733C106.051 93.3504 106.776 93.1591 107.609 93.1591C108.147 93.1591 108.655 93.2462 109.132 93.4205C109.613 93.5909 110.037 93.8561 110.405 94.2159C110.776 94.5758 111.068 95.0341 111.28 95.5909C111.492 96.1439 111.598 96.803 111.598 97.5682V98.1989H104.445V96.8125H109.626C109.623 96.4186 109.537 96.0682 109.371 95.7614C109.204 95.4508 108.971 95.2064 108.672 95.0284C108.376 94.8504 108.032 94.7614 107.638 94.7614C107.217 94.7614 106.848 94.8636 106.53 95.0682C106.212 95.2689 105.964 95.5341 105.786 95.8636C105.611 96.1894 105.522 96.5473 105.518 96.9375V98.1477C105.518 98.6553 105.611 99.0909 105.797 99.4545C105.982 99.8144 106.242 100.091 106.575 100.284C106.909 100.473 107.299 100.568 107.746 100.568C108.045 100.568 108.316 100.527 108.558 100.443C108.801 100.356 109.011 100.229 109.189 100.062C109.367 99.8958 109.501 99.6894 109.592 99.4432L111.513 99.6591C111.392 100.167 111.161 100.61 110.82 100.989C110.482 101.364 110.051 101.655 109.524 101.864C108.998 102.068 108.395 102.17 107.717 102.17ZM115.092 102L112.626 93.2727H114.723L116.257 99.4091H116.337L117.905 93.2727H119.979L121.547 99.375H121.632L123.143 93.2727H125.246L122.774 102H120.632L118.996 96.1023H118.876L117.24 102H115.092Z" fill="white"/>
<path d="M36 160V156H22C21.4696 156 20.9609 155.789 20.5858 155.414C20.2107 155.039 20 154.53 20 154C20 152.9 20.9 152 22 152H34V156" stroke="white" stroke-opacity="0.7" stroke-width="2" stroke-linecap="round" stroke-linejoin="round"/>
<path d="M20 154V166C20 167.1 20.9 168 22 168H36V164" stroke="white" stroke-opacity="0.7" stroke-width="2" stroke-linecap="round" stroke-linejoin="round"/>
<path d="M34 160C33.4696 160 32.9609 160.211 32.5858 160.586C32.2107 160.961 32 161.47 32 162C32 163.1 32.9 164 34 164H38V160H34Z" stroke="white" stroke-opacity="0.7" stroke-width="2" stroke-linecap="round" stroke-linejoin="round"/>
<path d="M53.4091 166V154.364H57.4773C58.2879 154.364 58.9564 154.504 59.483 154.784C60.0095 155.061 60.4015 155.434 60.6591 155.903C60.9167 156.369 61.0455 156.886 61.0455 157.455C61.0455 157.955 60.9564 158.367 60.7784 158.693C60.6042 159.019 60.3731 159.277 60.0852 159.466C59.8011 159.655 59.4924 159.795 59.1591 159.886V160C59.5152 160.023 59.8731 160.148 60.233 160.375C60.5928 160.602 60.8939 160.928 61.1364 161.352C61.3788 161.777 61.5 162.295 61.5 162.909C61.5 163.492 61.3674 164.017 61.1023 164.483C60.8371 164.949 60.4186 165.318 59.8466 165.591C59.2746 165.864 58.5303 166 57.6136 166H53.4091ZM54.8182 164.75H57.6136C58.5341 164.75 59.1875 164.572 59.5739 164.216C59.964 163.856 60.1591 163.42 60.1591 162.909C60.1591 162.515 60.0587 162.152 59.858 161.818C59.6572 161.481 59.3712 161.212 59 161.011C58.6288 160.807 58.1894 160.705 57.6818 160.705H54.8182V164.75ZM54.8182 159.477H57.4318C57.8561 159.477 58.2386 159.394 58.5795 159.227C58.9242 159.061 59.197 158.826 59.3977 158.523C59.6023 158.22 59.7045 157.864 59.7045 157.455C59.7045 156.943 59.5265 156.509 59.1705 156.153C58.8144 155.794 58.25 155.614 57.4773 155.614H54.8182V159.477ZM66.2017 166.205C65.6487 166.205 65.1468 166.1 64.696 165.892C64.2453 165.68 63.8873 165.375 63.6222 164.977C63.357 164.576 63.2244 164.091 63.2244 163.523C63.2244 163.023 63.3229 162.617 63.5199 162.307C63.7169 161.992 63.9801 161.746 64.3097 161.568C64.6392 161.39 65.0028 161.258 65.4006 161.17C65.8021 161.08 66.2055 161.008 66.6108 160.955C67.1411 160.886 67.571 160.835 67.9006 160.801C68.2339 160.763 68.4763 160.701 68.6278 160.614C68.7831 160.527 68.8608 160.375 68.8608 160.159V160.114C68.8608 159.553 68.7074 159.117 68.4006 158.807C68.0975 158.496 67.6373 158.341 67.0199 158.341C66.3797 158.341 65.8778 158.481 65.5142 158.761C65.1506 159.042 64.8949 159.341 64.7472 159.659L63.4744 159.205C63.7017 158.674 64.0047 158.261 64.3835 157.966C64.7661 157.667 65.1828 157.458 65.6335 157.341C66.0881 157.22 66.535 157.159 66.9744 157.159C67.2547 157.159 67.5767 157.193 67.9403 157.261C68.3078 157.326 68.6619 157.46 69.0028 157.665C69.3475 157.869 69.6335 158.178 69.8608 158.591C70.0881 159.004 70.2017 159.557 70.2017 160.25V166H68.8608V164.818H68.7926C68.7017 165.008 68.5502 165.21 68.3381 165.426C68.1259 165.642 67.8438 165.826 67.4915 165.977C67.1392 166.129 66.7093 166.205 66.2017 166.205ZM66.4062 165C66.9366 165 67.3835 164.896 67.7472 164.688C68.1146 164.479 68.3911 164.21 68.5767 163.881C68.7661 163.551 68.8608 163.205 68.8608 162.841V161.614C68.804 161.682 68.679 161.744 68.4858 161.801C68.2964 161.854 68.0767 161.902 67.8267 161.943C67.5805 161.981 67.34 162.015 67.1051 162.045C66.8741 162.072 66.6866 162.095 66.5426 162.114C66.1941 162.159 65.8684 162.233 65.5653 162.335C65.2661 162.434 65.0237 162.583 64.8381 162.784C64.6563 162.981 64.5653 163.25 64.5653 163.591C64.5653 164.057 64.7377 164.409 65.0824 164.648C65.4309 164.883 65.8722 165 66.4062 165ZM73.9901 154.364V166H72.6491V154.364H73.9901ZM79.0142 166.205C78.4612 166.205 77.9593 166.1 77.5085 165.892C77.0578 165.68 76.6998 165.375 76.4347 164.977C76.1695 164.576 76.0369 164.091 76.0369 163.523C76.0369 163.023 76.1354 162.617 76.3324 162.307C76.5294 161.992 76.7926 161.746 77.1222 161.568C77.4517 161.39 77.8153 161.258 78.2131 161.17C78.6146 161.08 79.018 161.008 79.4233 160.955C79.9536 160.886 80.3835 160.835 80.7131 160.801C81.0464 160.763 81.2888 160.701 81.4403 160.614C81.5956 160.527 81.6733 160.375 81.6733 160.159V160.114C81.6733 159.553 81.5199 159.117 81.2131 158.807C80.91 158.496 80.4498 158.341 79.8324 158.341C79.1922 158.341 78.6903 158.481 78.3267 158.761C77.9631 159.042 77.7074 159.341 77.5597 159.659L76.2869 159.205C76.5142 158.674 76.8172 158.261 77.196 157.966C77.5786 157.667 77.9953 157.458 78.446 157.341C78.9006 157.22 79.3475 157.159 79.7869 157.159C80.0672 157.159 80.3892 157.193 80.7528 157.261C81.1203 157.326 81.4744 157.46 81.8153 157.665C82.16 157.869 82.446 158.178 82.6733 158.591C82.9006 159.004 83.0142 159.557 83.0142 160.25V166H81.6733V164.818H81.6051C81.5142 165.008 81.3627 165.21 81.1506 165.426C80.9384 165.642 80.6563 165.826 80.304 165.977C79.9517 166.129 79.5218 166.205 79.0142 166.205ZM79.2188 165C79.7491 165 80.196 164.896 80.5597 164.688C80.9271 164.479 81.2036 164.21 81.3892 163.881C81.5786 163.551 81.6733 163.205 81.6733 162.841V161.614C81.6165 161.682 81.4915 161.744 81.2983 161.801C81.1089 161.854 80.8892 161.902 80.6392 161.943C80.393 161.981 80.1525 162.015 79.9176 162.045C79.6866 162.072 79.4991 162.095 79.3551 162.114C79.0066 162.159 78.6809 162.233 78.3778 162.335C78.0786 162.434 77.8362 162.583 77.6506 162.784C77.4688 162.981 77.3778 163.25 77.3778 163.591C77.3778 164.057 77.5502 164.409 77.8949 164.648C78.2434 164.883 78.6847 165 79.2188 165ZM86.8026 160.75V166H85.4616V157.273H86.7571V158.636H86.8707C87.0753 158.193 87.3859 157.837 87.8026 157.568C88.2192 157.295 88.7571 157.159 89.4162 157.159C90.0071 157.159 90.5241 157.28 90.9673 157.523C91.4105 157.761 91.7552 158.125 92.0014 158.614C92.2476 159.098 92.3707 159.712 92.3707 160.455V166H91.0298V160.545C91.0298 159.86 90.8518 159.326 90.4957 158.943C90.1397 158.557 89.651 158.364 89.0298 158.364C88.6018 158.364 88.2192 158.456 87.8821 158.642C87.5488 158.828 87.2855 159.098 87.0923 159.455C86.8991 159.811 86.8026 160.242 86.8026 160.75ZM98.3665 166.182C97.5483 166.182 96.8438 165.989 96.2528 165.602C95.6619 165.216 95.2074 164.684 94.8892 164.006C94.571 163.328 94.4119 162.553 94.4119 161.682C94.4119 160.795 94.5748 160.013 94.9006 159.335C95.2301 158.653 95.6884 158.121 96.2756 157.739C96.8665 157.352 97.5559 157.159 98.3438 157.159C98.9574 157.159 99.5104 157.273 100.003 157.5C100.495 157.727 100.899 158.045 101.213 158.455C101.527 158.864 101.723 159.341 101.798 159.886H100.457C100.355 159.489 100.128 159.136 99.7756 158.83C99.4271 158.519 98.9574 158.364 98.3665 158.364C97.8438 158.364 97.3854 158.5 96.9915 158.773C96.6013 159.042 96.2964 159.422 96.0767 159.915C95.8608 160.403 95.7528 160.977 95.7528 161.636C95.7528 162.311 95.8589 162.898 96.071 163.398C96.2869 163.898 96.59 164.286 96.9801 164.562C97.3741 164.839 97.8362 164.977 98.3665 164.977C98.715 164.977 99.0312 164.917 99.3153 164.795C99.5994 164.674 99.84 164.5 100.037 164.273C100.234 164.045 100.374 163.773 100.457 163.455H101.798C101.723 163.97 101.535 164.434 101.236 164.847C100.94 165.256 100.548 165.581 100.06 165.824C99.5748 166.062 99.0104 166.182 98.3665 166.182ZM107.418 166.182C106.577 166.182 105.851 165.996 105.241 165.625C104.635 165.25 104.168 164.727 103.838 164.057C103.512 163.383 103.349 162.598 103.349 161.705C103.349 160.811 103.512 160.023 103.838 159.341C104.168 158.655 104.626 158.121 105.213 157.739C105.804 157.352 106.493 157.159 107.281 157.159C107.736 157.159 108.185 157.235 108.628 157.386C109.071 157.538 109.474 157.784 109.838 158.125C110.202 158.462 110.491 158.909 110.707 159.466C110.923 160.023 111.031 160.708 111.031 161.523V162.091H104.304V160.932H109.668C109.668 160.439 109.569 160 109.372 159.614C109.179 159.227 108.902 158.922 108.543 158.699C108.187 158.475 107.766 158.364 107.281 158.364C106.747 158.364 106.285 158.496 105.895 158.761C105.509 159.023 105.211 159.364 105.003 159.784C104.795 160.205 104.69 160.655 104.69 161.136V161.909C104.69 162.568 104.804 163.127 105.031 163.585C105.262 164.04 105.582 164.386 105.991 164.625C106.401 164.86 106.876 164.977 107.418 164.977C107.77 164.977 108.088 164.928 108.372 164.83C108.66 164.727 108.908 164.576 109.116 164.375C109.325 164.17 109.486 163.917 109.599 163.614L110.895 163.977C110.759 164.417 110.529 164.803 110.207 165.136C109.885 165.466 109.488 165.723 109.014 165.909C108.541 166.091 108.009 166.182 107.418 166.182ZM119.253 159.227L118.048 159.568C117.973 159.367 117.861 159.172 117.713 158.983C117.569 158.79 117.372 158.631 117.122 158.506C116.872 158.381 116.552 158.318 116.162 158.318C115.628 158.318 115.183 158.441 114.827 158.688C114.474 158.93 114.298 159.239 114.298 159.614C114.298 159.947 114.42 160.21 114.662 160.403C114.904 160.597 115.283 160.758 115.798 160.886L117.094 161.205C117.874 161.394 118.455 161.684 118.838 162.074C119.221 162.46 119.412 162.958 119.412 163.568C119.412 164.068 119.268 164.515 118.98 164.909C118.696 165.303 118.298 165.614 117.787 165.841C117.276 166.068 116.681 166.182 116.003 166.182C115.113 166.182 114.376 165.989 113.793 165.602C113.209 165.216 112.84 164.652 112.685 163.909L113.957 163.591C114.079 164.061 114.308 164.413 114.645 164.648C114.986 164.883 115.431 165 115.98 165C116.605 165 117.101 164.867 117.469 164.602C117.84 164.333 118.026 164.011 118.026 163.636C118.026 163.333 117.92 163.08 117.707 162.875C117.495 162.667 117.17 162.511 116.73 162.409L115.276 162.068C114.476 161.879 113.889 161.585 113.514 161.188C113.143 160.786 112.957 160.284 112.957 159.682C112.957 159.189 113.096 158.754 113.372 158.375C113.652 157.996 114.033 157.699 114.514 157.483C114.999 157.267 115.548 157.159 116.162 157.159C117.026 157.159 117.704 157.348 118.196 157.727C118.692 158.106 119.045 158.606 119.253 159.227Z" fill="white" fill-opacity="0.7"/>
<path d="M33 223L37 219L33 215" stroke="white" stroke-opacity="0.7" stroke-width="2" stroke-linecap="round" stroke-linejoin="round"/>
<path d="M37 219H25" stroke="white" stroke-opacity="0.7" stroke-width="2" stroke-linecap="round" stroke-linejoin="round"/>
<path d="M23 233L19 229L23 225" stroke="white" stroke-opacity="0.7" stroke-width="2" stroke-linecap="round" stroke-linejoin="round"/>
<path d="M31 229H19" stroke="white" stroke-opacity="0.7" stroke-width="2" stroke-linecap="round" stroke-linejoin="round"/>
<path d="M52.7727 219.614V218.364H61.5V219.614H57.8409V230H56.4318V219.614H52.7727ZM62.5866 230V221.273H63.8821V222.591H63.973C64.1321 222.159 64.42 221.809 64.8366 221.54C65.2533 221.271 65.723 221.136 66.2457 221.136C66.3442 221.136 66.4673 221.138 66.6151 221.142C66.7628 221.146 66.8745 221.152 66.9503 221.159V222.523C66.9048 222.511 66.8007 222.494 66.6378 222.472C66.4787 222.445 66.3101 222.432 66.1321 222.432C65.7079 222.432 65.3291 222.521 64.9957 222.699C64.6662 222.873 64.4048 223.116 64.2116 223.426C64.0223 223.733 63.9276 224.083 63.9276 224.477V230H62.5866ZM71.108 230.205C70.5549 230.205 70.053 230.1 69.6023 229.892C69.1515 229.68 68.7936 229.375 68.5284 228.977C68.2633 228.576 68.1307 228.091 68.1307 227.523C68.1307 227.023 68.2292 226.617 68.4261 226.307C68.6231 225.992 68.8864 225.746 69.2159 225.568C69.5455 225.39 69.9091 225.258 70.3068 225.17C70.7083 225.08 71.1117 225.008 71.517 224.955C72.0473 224.886 72.4773 224.835 72.8068 224.801C73.1402 224.763 73.3826 224.701 73.5341 224.614C73.6894 224.527 73.767 224.375 73.767 224.159V224.114C73.767 223.553 73.6136 223.117 73.3068 222.807C73.0038 222.496 72.5436 222.341 71.9261 222.341C71.286 222.341 70.7841 222.481 70.4205 222.761C70.0568 223.042 69.8011 223.341 69.6534 223.659L68.3807 223.205C68.608 222.674 68.911 222.261 69.2898 221.966C69.6723 221.667 70.089 221.458 70.5398 221.341C70.9943 221.22 71.4413 221.159 71.8807 221.159C72.161 221.159 72.483 221.193 72.8466 221.261C73.214 221.326 73.5682 221.46 73.9091 221.665C74.2538 221.869 74.5398 222.178 74.767 222.591C74.9943 223.004 75.108 223.557 75.108 224.25V230H73.767V228.818H73.6989C73.608 229.008 73.4564 229.21 73.2443 229.426C73.0322 229.642 72.75 229.826 72.3977 229.977C72.0455 230.129 71.6155 230.205 71.108 230.205ZM71.3125 229C71.8428 229 72.2898 228.896 72.6534 228.688C73.0208 228.479 73.2973 228.21 73.483 227.881C73.6723 227.551 73.767 227.205 73.767 226.841V225.614C73.7102 225.682 73.5852 225.744 73.392 225.801C73.2027 225.854 72.983 225.902 72.733 225.943C72.4867 225.981 72.2462 226.015 72.0114 226.045C71.7803 226.072 71.5928 226.095 71.4489 226.114C71.1004 226.159 70.7746 226.233 70.4716 226.335C70.1723 226.434 69.9299 226.583 69.7443 226.784C69.5625 226.981 69.4716 227.25 69.4716 227.591C69.4716 228.057 69.6439 228.409 69.9886 228.648C70.3371 228.883 70.7784 229 71.3125 229ZM78.8963 224.75V230H77.5554V221.273H78.8509V222.636H78.9645C79.169 222.193 79.4796 221.837 79.8963 221.568C80.313 221.295 80.8509 221.159 81.5099 221.159C82.1009 221.159 82.6179 221.28 83.0611 221.523C83.5043 221.761 83.849 222.125 84.0952 222.614C84.3414 223.098 84.4645 223.712 84.4645 224.455V230H83.1236V224.545C83.1236 223.86 82.9455 223.326 82.5895 222.943C82.2334 222.557 81.7448 222.364 81.1236 222.364C80.6955 222.364 80.313 222.456 79.9759 222.642C79.6425 222.828 79.3793 223.098 79.1861 223.455C78.9929 223.811 78.8963 224.242 78.8963 224.75ZM93.0966 223.227L91.892 223.568C91.8163 223.367 91.7045 223.172 91.5568 222.983C91.4129 222.79 91.2159 222.631 90.9659 222.506C90.7159 222.381 90.3958 222.318 90.0057 222.318C89.4716 222.318 89.0265 222.441 88.6705 222.688C88.3182 222.93 88.142 223.239 88.142 223.614C88.142 223.947 88.2633 224.21 88.5057 224.403C88.7481 224.597 89.1269 224.758 89.642 224.886L90.9375 225.205C91.7178 225.394 92.2992 225.684 92.6818 226.074C93.0644 226.46 93.2557 226.958 93.2557 227.568C93.2557 228.068 93.1117 228.515 92.8239 228.909C92.5398 229.303 92.142 229.614 91.6307 229.841C91.1193 230.068 90.5246 230.182 89.8466 230.182C88.9564 230.182 88.2197 229.989 87.6364 229.602C87.053 229.216 86.6837 228.652 86.5284 227.909L87.8011 227.591C87.9223 228.061 88.1515 228.413 88.4886 228.648C88.8295 228.883 89.2746 229 89.8239 229C90.4489 229 90.9451 228.867 91.3125 228.602C91.6837 228.333 91.8693 228.011 91.8693 227.636C91.8693 227.333 91.7633 227.08 91.5511 226.875C91.339 226.667 91.0133 226.511 90.5739 226.409L89.1193 226.068C88.3201 225.879 87.733 225.585 87.358 225.188C86.9867 224.786 86.8011 224.284 86.8011 223.682C86.8011 223.189 86.9394 222.754 87.2159 222.375C87.4962 221.996 87.8769 221.699 88.358 221.483C88.8428 221.267 89.392 221.159 90.0057 221.159C90.8693 221.159 91.5473 221.348 92.0398 221.727C92.536 222.106 92.8883 222.606 93.0966 223.227ZM97.8423 230.205C97.2893 230.205 96.7874 230.1 96.3366 229.892C95.8859 229.68 95.5279 229.375 95.2628 228.977C94.9976 228.576 94.8651 228.091 94.8651 227.523C94.8651 227.023 94.9635 226.617 95.1605 226.307C95.3575 225.992 95.6207 225.746 95.9503 225.568C96.2798 225.39 96.6435 225.258 97.0412 225.17C97.4427 225.08 97.8461 225.008 98.2514 224.955C98.7817 224.886 99.2116 224.835 99.5412 224.801C99.8745 224.763 100.117 224.701 100.268 224.614C100.424 224.527 100.501 224.375 100.501 224.159V224.114C100.501 223.553 100.348 223.117 100.041 222.807C99.7382 222.496 99.2779 222.341 98.6605 222.341C98.0204 222.341 97.5185 222.481 97.1548 222.761C96.7912 223.042 96.5355 223.341 96.3878 223.659L95.1151 223.205C95.3423 222.674 95.6454 222.261 96.0241 221.966C96.4067 221.667 96.8234 221.458 97.2741 221.341C97.7287 221.22 98.1757 221.159 98.6151 221.159C98.8954 221.159 99.2173 221.193 99.581 221.261C99.9484 221.326 100.303 221.46 100.643 221.665C100.988 221.869 101.274 222.178 101.501 222.591C101.729 223.004 101.842 223.557 101.842 224.25V230H100.501V228.818H100.433C100.342 229.008 100.191 229.21 99.9787 229.426C99.7666 229.642 99.4844 229.826 99.1321 229.977C98.7798 230.129 98.3499 230.205 97.8423 230.205ZM98.0469 229C98.5772 229 99.0241 228.896 99.3878 228.688C99.7552 228.479 100.032 228.21 100.217 227.881C100.407 227.551 100.501 227.205 100.501 226.841V225.614C100.445 225.682 100.32 225.744 100.126 225.801C99.937 225.854 99.7173 225.902 99.4673 225.943C99.2211 225.981 98.9806 226.015 98.7457 226.045C98.5147 226.072 98.3272 226.095 98.1832 226.114C97.8348 226.159 97.509 226.233 97.206 226.335C96.9067 226.434 96.6643 226.583 96.4787 226.784C96.2969 226.981 96.206 227.25 96.206 227.591C96.206 228.057 96.3783 228.409 96.723 228.648C97.0715 228.883 97.5128 229 98.0469 229ZM107.835 230.182C107.017 230.182 106.313 229.989 105.722 229.602C105.131 229.216 104.676 228.684 104.358 228.006C104.04 227.328 103.881 226.553 103.881 225.682C103.881 224.795 104.044 224.013 104.369 223.335C104.699 222.653 105.157 222.121 105.744 221.739C106.335 221.352 107.025 221.159 107.812 221.159C108.426 221.159 108.979 221.273 109.472 221.5C109.964 221.727 110.367 222.045 110.682 222.455C110.996 222.864 111.191 223.341 111.267 223.886H109.926C109.824 223.489 109.597 223.136 109.244 222.83C108.896 222.519 108.426 222.364 107.835 222.364C107.313 222.364 106.854 222.5 106.46 222.773C106.07 223.042 105.765 223.422 105.545 223.915C105.33 224.403 105.222 224.977 105.222 225.636C105.222 226.311 105.328 226.898 105.54 227.398C105.756 227.898 106.059 228.286 106.449 228.562C106.843 228.839 107.305 228.977 107.835 228.977C108.184 228.977 108.5 228.917 108.784 228.795C109.068 228.674 109.309 228.5 109.506 228.273C109.703 228.045 109.843 227.773 109.926 227.455H111.267C111.191 227.97 111.004 228.434 110.705 228.847C110.409 229.256 110.017 229.581 109.528 229.824C109.044 230.062 108.479 230.182 107.835 230.182ZM117.023 221.273V222.409H112.5V221.273H117.023ZM113.818 219.182H115.159V227.5C115.159 227.879 115.214 228.163 115.324 228.352C115.438 228.538 115.581 228.663 115.756 228.727C115.934 228.788 116.121 228.818 116.318 228.818C116.466 228.818 116.587 228.811 116.682 228.795C116.777 228.777 116.852 228.761 116.909 228.75L117.182 229.955C117.091 229.989 116.964 230.023 116.801 230.057C116.638 230.095 116.432 230.114 116.182 230.114C115.803 230.114 115.432 230.032 115.068 229.869C114.708 229.706 114.409 229.458 114.17 229.125C113.936 228.792 113.818 228.371 113.818 227.864V219.182ZM119.04 230V221.273H120.381V230H119.04ZM119.722 219.818C119.46 219.818 119.235 219.729 119.045 219.551C118.86 219.373 118.767 219.159 118.767 218.909C118.767 218.659 118.86 218.445 119.045 218.267C119.235 218.089 119.46 218 119.722 218C119.983 218 120.206 218.089 120.392 218.267C120.581 218.445 120.676 218.659 120.676 218.909C120.676 219.159 120.581 219.373 120.392 219.551C120.206 219.729 119.983 219.818 119.722 219.818ZM126.382 230.182C125.594 230.182 124.903 229.994 124.308 229.619C123.717 229.244 123.255 228.72 122.922 228.045C122.592 227.371 122.428 226.583 122.428 225.682C122.428 224.773 122.592 223.979 122.922 223.301C123.255 222.623 123.717 222.097 124.308 221.722C124.903 221.347 125.594 221.159 126.382 221.159C127.17 221.159 127.859 221.347 128.45 221.722C129.045 222.097 129.507 222.623 129.837 223.301C130.17 223.979 130.337 224.773 130.337 225.682C130.337 226.583 130.17 227.371 129.837 228.045C129.507 228.72 129.045 229.244 128.45 229.619C127.859 229.994 127.17 230.182 126.382 230.182ZM126.382 228.977C126.981 228.977 127.473 228.824 127.859 228.517C128.246 228.21 128.532 227.807 128.717 227.307C128.903 226.807 128.996 226.265 128.996 225.682C128.996 225.098 128.903 224.555 128.717 224.051C128.532 223.547 128.246 223.14 127.859 222.83C127.473 222.519 126.981 222.364 126.382 222.364C125.784 222.364 125.291 222.519 124.905 222.83C124.518 223.14 124.232 223.547 124.047 224.051C123.861 224.555 123.768 225.098 123.768 225.682C123.768 226.265 123.861 226.807 124.047 227.307C124.232 227.807 124.518 228.21 124.905 228.517C125.291 228.824 125.784 228.977 126.382 228.977ZM133.724 224.75V230H132.384V221.273H133.679V222.636H133.793C133.997 222.193 134.308 221.837 134.724 221.568C135.141 221.295 135.679 221.159 136.338 221.159C136.929 221.159 137.446 221.28 137.889 221.523C138.332 221.761 138.677 222.125 138.923 222.614C139.17 223.098 139.293 223.712 139.293 224.455V230H137.952V224.545C137.952 223.86 137.774 223.326 137.418 222.943C137.062 222.557 136.573 222.364 135.952 222.364C135.524 222.364 135.141 222.456 134.804 222.642C134.471 222.828 134.207 223.098 134.014 223.455C133.821 223.811 133.724 224.242 133.724 224.75ZM147.925 223.227L146.72 223.568C146.644 223.367 146.533 223.172 146.385 222.983C146.241 222.79 146.044 222.631 145.794 222.506C145.544 222.381 145.224 222.318 144.834 222.318C144.3 222.318 143.855 222.441 143.499 222.688C143.146 222.93 142.97 223.239 142.97 223.614C142.97 223.947 143.091 224.21 143.334 224.403C143.576 224.597 143.955 224.758 144.47 224.886L145.766 225.205C146.546 225.394 147.127 225.684 147.51 226.074C147.893 226.46 148.084 226.958 148.084 227.568C148.084 228.068 147.94 228.515 147.652 228.909C147.368 229.303 146.97 229.614 146.459 229.841C145.947 230.068 145.353 230.182 144.675 230.182C143.785 230.182 143.048 229.989 142.464 229.602C141.881 229.216 141.512 228.652 141.357 227.909L142.629 227.591C142.75 228.061 142.98 228.413 143.317 228.648C143.658 228.883 144.103 229 144.652 229C145.277 229 145.773 228.867 146.141 228.602C146.512 228.333 146.697 228.011 146.697 227.636C146.697 227.333 146.591 227.08 146.379 226.875C146.167 226.667 145.841 226.511 145.402 226.409L143.947 226.068C143.148 225.879 142.561 225.585 142.186 225.188C141.815 224.786 141.629 224.284 141.629 223.682C141.629 223.189 141.768 222.754 142.044 222.375C142.324 221.996 142.705 221.699 143.186 221.483C143.671 221.267 144.22 221.159 144.834 221.159C145.697 221.159 146.375 221.348 146.868 221.727C147.364 222.106 147.716 222.606 147.925 223.227Z" fill="white" fill-opacity="0.7"/>
<path d="M25.5 286.5H28C28.2652 286.5 28.5196 286.395 28.7071 286.207C28.8947 286.02 29 285.765 29 285.5C29 285.235 28.8947 284.98 28.7071 284.793C28.5196 284.605 28.2652 284.5 28 284.5H27V284C27 283.735 26.8947 283.48 26.7071 283.293C26.5196 283.105 26.2652 283 26 283C25.7348 283 25.4804 283.105 25.2929 283.293C25.1054 283.48 25 283.735 25 284V284.55C24.3924 284.673 23.8524 285.018 23.4847 285.517C23.117 286.016 22.9478 286.634 23.0102 287.251C23.0725 287.868 23.3617 288.44 23.8218 288.855C24.2819 289.271 24.88 289.501 25.5 289.5H26.5C26.6326 289.5 26.7598 289.553 26.8536 289.646C26.9473 289.74 27 289.867 27 290C27 290.133 26.9473 290.26 26.8536 290.354C26.7598 290.447 26.6326 290.5 26.5 290.5H24C23.7348 290.5 23.4804 290.605 23.2929 290.793C23.1054 290.98 23 291.235 23 291.5C23 291.765 23.1054 292.02 23.2929 292.207C23.4804 292.395 23.7348 292.5 24 292.5H25V293C25 293.265 25.1054 293.52 25.2929 293.707C25.4804 293.895 25.7348 294 26 294C26.2652 294 26.5196 293.895 26.7071 293.707C26.8947 293.52 27 293.265 27 293V292.45C27.6076 292.327 28.1476 291.982 28.5154 291.483C28.8831 290.984 29.0522 290.366 28.9899 289.749C28.9276 289.132 28.6383 288.56 28.1782 288.145C27.7181 287.729 27.12 287.499 26.5 287.5H25.5C25.3674 287.5 25.2402 287.447 25.1465 287.354C25.0527 287.26 25 287.133 25 287C25 286.867 25.0527 286.74 25.1465 286.646C25.2402 286.553 25.3674 286.5 25.5 286.5ZM37 288H34V279C34.0007 278.824 33.9548 278.651 33.867 278.498C33.7792 278.345 33.6526 278.218 33.5 278.13C33.348 278.042 33.1755 277.996 33 277.996C32.8245 277.996 32.652 278.042 32.5 278.13L29.5 279.85L26.5 278.13C26.348 278.042 26.1755 277.996 26 277.996C25.8245 277.996 25.652 278.042 25.5 278.13L22.5 279.85L19.5 278.13C19.348 278.042 19.1755 277.996 19 277.996C18.8245 277.996 18.652 278.042 18.5 278.13C18.3474 278.218 18.2208 278.345 18.133 278.498C18.0452 278.651 17.9993 278.824 18 279V295C18 295.796 18.3161 296.559 18.8787 297.121C19.4413 297.684 20.2044 298 21 298H35C35.7957 298 36.5587 297.684 37.1213 297.121C37.6839 296.559 38 295.796 38 295V289C38 288.735 37.8947 288.48 37.7071 288.293C37.5196 288.105 37.2652 288 37 288ZM21 296C20.7348 296 20.4804 295.895 20.2929 295.707C20.1054 295.52 20 295.265 20 295V280.73L22 281.87C22.1543 281.951 22.3259 281.993 22.5 281.993C22.6741 281.993 22.8457 281.951 23 281.87L26 280.15L29 281.87C29.1543 281.951 29.3259 281.993 29.5 281.993C29.6741 281.993 29.8457 281.951 30 281.87L32 280.73V295C32.0027 295.341 32.0636 295.679 32.18 296H21ZM36 295C36 295.265 35.8947 295.52 35.7071 295.707C35.5196 295.895 35.2652 296 35 296C34.7348 296 34.4804 295.895 34.2929 295.707C34.1054 295.52 34 295.265 34 295V290H36V295Z" fill="white" fill-opacity="0.7"/>
<path d="M53.4091 294V282.364H57.4773C58.2879 282.364 58.9564 282.504 59.483 282.784C60.0095 283.061 60.4015 283.434 60.6591 283.903C60.9167 284.369 61.0455 284.886 61.0455 285.455C61.0455 285.955 60.9564 286.367 60.7784 286.693C60.6042 287.019 60.3731 287.277 60.0852 287.466C59.8011 287.655 59.4924 287.795 59.1591 287.886V288C59.5152 288.023 59.8731 288.148 60.233 288.375C60.5928 288.602 60.8939 288.928 61.1364 289.352C61.3788 289.777 61.5 290.295 61.5 290.909C61.5 291.492 61.3674 292.017 61.1023 292.483C60.8371 292.949 60.4186 293.318 59.8466 293.591C59.2746 293.864 58.5303 294 57.6136 294H53.4091ZM54.8182 292.75H57.6136C58.5341 292.75 59.1875 292.572 59.5739 292.216C59.964 291.856 60.1591 291.42 60.1591 290.909C60.1591 290.515 60.0587 290.152 59.858 289.818C59.6572 289.481 59.3712 289.212 59 289.011C58.6288 288.807 58.1894 288.705 57.6818 288.705H54.8182V292.75ZM54.8182 287.477H57.4318C57.8561 287.477 58.2386 287.394 58.5795 287.227C58.9242 287.061 59.197 286.826 59.3977 286.523C59.6023 286.22 59.7045 285.864 59.7045 285.455C59.7045 284.943 59.5265 284.509 59.1705 284.153C58.8144 283.794 58.25 283.614 57.4773 283.614H54.8182V287.477ZM63.6335 294V285.273H64.9744V294H63.6335ZM64.3153 283.818C64.054 283.818 63.8286 283.729 63.6392 283.551C63.4536 283.373 63.3608 283.159 63.3608 282.909C63.3608 282.659 63.4536 282.445 63.6392 282.267C63.8286 282.089 64.054 282 64.3153 282C64.5767 282 64.8002 282.089 64.9858 282.267C65.1752 282.445 65.2699 282.659 65.2699 282.909C65.2699 283.159 65.1752 283.373 64.9858 283.551C64.8002 283.729 64.5767 283.818 64.3153 283.818ZM68.7713 282.364V294H67.4304V282.364H68.7713ZM72.5682 282.364V294H71.2273V282.364H72.5682ZM81.206 287.227L80.0014 287.568C79.9257 287.367 79.8139 287.172 79.6662 286.983C79.5223 286.79 79.3253 286.631 79.0753 286.506C78.8253 286.381 78.5052 286.318 78.1151 286.318C77.581 286.318 77.1359 286.441 76.7798 286.688C76.4276 286.93 76.2514 287.239 76.2514 287.614C76.2514 287.947 76.3726 288.21 76.6151 288.403C76.8575 288.597 77.2363 288.758 77.7514 288.886L79.0469 289.205C79.8272 289.394 80.4086 289.684 80.7912 290.074C81.1738 290.46 81.3651 290.958 81.3651 291.568C81.3651 292.068 81.2211 292.515 80.9332 292.909C80.6491 293.303 80.2514 293.614 79.7401 293.841C79.2287 294.068 78.634 294.182 77.956 294.182C77.0658 294.182 76.3291 293.989 75.7457 293.602C75.1624 293.216 74.7931 292.652 74.6378 291.909L75.9105 291.591C76.0317 292.061 76.2609 292.413 76.598 292.648C76.9389 292.883 77.384 293 77.9332 293C78.5582 293 79.0545 292.867 79.4219 292.602C79.7931 292.333 79.9787 292.011 79.9787 291.636C79.9787 291.333 79.8726 291.08 79.6605 290.875C79.4484 290.667 79.1226 290.511 78.6832 290.409L77.2287 290.068C76.4295 289.879 75.8423 289.585 75.4673 289.188C75.0961 288.786 74.9105 288.284 74.9105 287.682C74.9105 287.189 75.0488 286.754 75.3253 286.375C75.6056 285.996 75.9863 285.699 76.4673 285.483C76.9522 285.267 77.5014 285.159 78.1151 285.159C78.9787 285.159 79.6567 285.348 80.1491 285.727C80.6454 286.106 80.9976 286.606 81.206 287.227Z" fill="white" fill-opacity="0.7"/>
<path d="M31.5 357H37.5M37.5 357L35 359.5M37.5 357L35 354.5" stroke="white" stroke-opacity="0.7" stroke-width="2" stroke-linecap="round" stroke-linejoin="round"/>
<path d="M37.5 353V345C37.5 344.602 37.342 344.221 37.0607 343.939C36.7794 343.658 36.3978 343.5 36 343.5H20C19.6022 343.5 19.2206 343.658 18.9393 343.939C18.658 344.221 18.5 344.602 18.5 345V359C18.5 359.398 18.658 359.779 18.9393 360.061C19.2206 360.342 19.6022 360.5 20 360.5H30.235" stroke="white" stroke-opacity="0.7" stroke-width="2" stroke-linecap="round" stroke-linejoin="round"/>
<path d="M26 347V357" stroke="white" stroke-opacity="0.7" stroke-width="2" stroke-linecap="round" stroke-linejoin="round"/>
<path d="M28.5 348.5H24.75C24.2859 348.5 23.8408 348.684 23.5126 349.013C23.1844 349.341 23 349.786 23 350.25C23 350.714 23.1844 351.159 23.5126 351.487C23.8408 351.816 24.2859 352 24.75 352H27.25C27.7141 352 28.1592 352.184 28.4874 352.513C28.8156 352.841 29 353.286 29 353.75C29 354.214 28.8156 354.659 28.4874 354.987C28.1592 355.316 27.7141 355.5 27.25 355.5H23" stroke="white" stroke-opacity="0.7" stroke-width="2" stroke-linecap="round" stroke-linejoin="round"/>
<path d="M53.4091 358V346.364H60.4318V347.614H54.8182V351.545H60.0682V352.795H54.8182V356.75H60.5227V358H53.4091ZM63.7898 349.273L65.8807 352.841L67.9716 349.273H69.517L66.6989 353.636L69.517 358H67.9716L65.8807 354.614L63.7898 358H62.2443L65.017 353.636L62.2443 349.273H63.7898ZM71.4304 361.273V349.273H72.7259V350.659H72.8849C72.9834 350.508 73.1198 350.314 73.294 350.08C73.4721 349.841 73.7259 349.629 74.0554 349.443C74.3887 349.254 74.8395 349.159 75.4077 349.159C76.1425 349.159 76.7902 349.343 77.3509 349.71C77.9115 350.078 78.349 350.598 78.6634 351.273C78.9777 351.947 79.1349 352.742 79.1349 353.659C79.1349 354.583 78.9777 355.384 78.6634 356.062C78.349 356.737 77.9134 357.259 77.3565 357.631C76.7997 357.998 76.1577 358.182 75.4304 358.182C74.8698 358.182 74.4209 358.089 74.0838 357.903C73.7467 357.714 73.4872 357.5 73.3054 357.261C73.1236 357.019 72.9834 356.818 72.8849 356.659H72.7713V361.273H71.4304ZM72.7486 353.636C72.7486 354.295 72.8452 354.877 73.0384 355.381C73.2315 355.881 73.5137 356.273 73.8849 356.557C74.2562 356.837 74.7107 356.977 75.2486 356.977C75.8092 356.977 76.277 356.83 76.652 356.534C77.0308 356.235 77.3149 355.833 77.5043 355.33C77.6974 354.822 77.794 354.258 77.794 353.636C77.794 353.023 77.6993 352.47 77.5099 351.977C77.3243 351.481 77.0421 351.089 76.6634 350.801C76.2884 350.509 75.8168 350.364 75.2486 350.364C74.7031 350.364 74.2448 350.502 73.8736 350.778C73.5024 351.051 73.2221 351.434 73.0327 351.926C72.8433 352.415 72.7486 352.985 72.7486 353.636ZM84.8395 358.182C83.9986 358.182 83.2732 357.996 82.6634 357.625C82.0573 357.25 81.5895 356.727 81.2599 356.057C80.9342 355.383 80.7713 354.598 80.7713 353.705C80.7713 352.811 80.9342 352.023 81.2599 351.341C81.5895 350.655 82.0478 350.121 82.6349 349.739C83.2259 349.352 83.9152 349.159 84.7031 349.159C85.1577 349.159 85.6065 349.235 86.0497 349.386C86.4929 349.538 86.8963 349.784 87.2599 350.125C87.6236 350.462 87.9134 350.909 88.1293 351.466C88.3452 352.023 88.4531 352.708 88.4531 353.523V354.091H81.7259V352.932H87.0895C87.0895 352.439 86.991 352 86.794 351.614C86.6009 351.227 86.3243 350.922 85.9645 350.699C85.6084 350.475 85.188 350.364 84.7031 350.364C84.169 350.364 83.7069 350.496 83.3168 350.761C82.9304 351.023 82.633 351.364 82.4247 351.784C82.2164 352.205 82.1122 352.655 82.1122 353.136V353.909C82.1122 354.568 82.2259 355.127 82.4531 355.585C82.6842 356.04 83.0043 356.386 83.4134 356.625C83.8224 356.86 84.2978 356.977 84.8395 356.977C85.1918 356.977 85.5099 356.928 85.794 356.83C86.0819 356.727 86.33 356.576 86.5384 356.375C86.7467 356.17 86.9077 355.917 87.0213 355.614L88.3168 355.977C88.1804 356.417 87.9512 356.803 87.6293 357.136C87.3073 357.466 86.9096 357.723 86.4361 357.909C85.9626 358.091 85.4304 358.182 84.8395 358.182ZM91.8338 352.75V358H90.4929V349.273H91.7884V350.636H91.902C92.1065 350.193 92.4171 349.837 92.8338 349.568C93.2505 349.295 93.7884 349.159 94.4474 349.159C95.0384 349.159 95.5554 349.28 95.9986 349.523C96.4418 349.761 96.7865 350.125 97.0327 350.614C97.2789 351.098 97.402 351.712 97.402 352.455V358H96.0611V352.545C96.0611 351.86 95.883 351.326 95.527 350.943C95.1709 350.557 94.6823 350.364 94.0611 350.364C93.633 350.364 93.2505 350.456 92.9134 350.642C92.58 350.828 92.3168 351.098 92.1236 351.455C91.9304 351.811 91.8338 352.242 91.8338 352.75ZM106.034 351.227L104.83 351.568C104.754 351.367 104.642 351.172 104.494 350.983C104.35 350.79 104.153 350.631 103.903 350.506C103.653 350.381 103.333 350.318 102.943 350.318C102.409 350.318 101.964 350.441 101.608 350.688C101.256 350.93 101.08 351.239 101.08 351.614C101.08 351.947 101.201 352.21 101.443 352.403C101.686 352.597 102.064 352.758 102.58 352.886L103.875 353.205C104.655 353.394 105.237 353.684 105.619 354.074C106.002 354.46 106.193 354.958 106.193 355.568C106.193 356.068 106.049 356.515 105.761 356.909C105.477 357.303 105.08 357.614 104.568 357.841C104.057 358.068 103.462 358.182 102.784 358.182C101.894 358.182 101.157 357.989 100.574 357.602C99.9905 357.216 99.6212 356.652 99.4659 355.909L100.739 355.591C100.86 356.061 101.089 356.413 101.426 356.648C101.767 356.883 102.212 357 102.761 357C103.386 357 103.883 356.867 104.25 356.602C104.621 356.333 104.807 356.011 104.807 355.636C104.807 355.333 104.701 355.08 104.489 354.875C104.277 354.667 103.951 354.511 103.511 354.409L102.057 354.068C101.258 353.879 100.67 353.585 100.295 353.188C99.9242 352.786 99.7386 352.284 99.7386 351.682C99.7386 351.189 99.8769 350.754 100.153 350.375C100.434 349.996 100.814 349.699 101.295 349.483C101.78 349.267 102.33 349.159 102.943 349.159C103.807 349.159 104.485 349.348 104.977 349.727C105.473 350.106 105.826 350.606 106.034 351.227ZM111.871 358.182C111.03 358.182 110.304 357.996 109.695 357.625C109.089 357.25 108.621 356.727 108.291 356.057C107.965 355.383 107.803 354.598 107.803 353.705C107.803 352.811 107.965 352.023 108.291 351.341C108.621 350.655 109.079 350.121 109.666 349.739C110.257 349.352 110.946 349.159 111.734 349.159C112.189 349.159 112.638 349.235 113.081 349.386C113.524 349.538 113.928 349.784 114.291 350.125C114.655 350.462 114.945 350.909 115.161 351.466C115.376 352.023 115.484 352.708 115.484 353.523V354.091H108.757V352.932H114.121C114.121 352.439 114.022 352 113.825 351.614C113.632 351.227 113.356 350.922 112.996 350.699C112.64 350.475 112.219 350.364 111.734 350.364C111.2 350.364 110.738 350.496 110.348 350.761C109.962 351.023 109.664 351.364 109.456 351.784C109.248 352.205 109.143 352.655 109.143 353.136V353.909C109.143 354.568 109.257 355.127 109.484 355.585C109.715 356.04 110.036 356.386 110.445 356.625C110.854 356.86 111.329 356.977 111.871 356.977C112.223 356.977 112.541 356.928 112.825 356.83C113.113 356.727 113.361 356.576 113.57 356.375C113.778 356.17 113.939 355.917 114.053 355.614L115.348 355.977C115.212 356.417 114.982 356.803 114.661 357.136C114.339 357.466 113.941 357.723 113.467 357.909C112.994 358.091 112.462 358.182 111.871 358.182ZM123.706 351.227L122.501 351.568C122.426 351.367 122.314 351.172 122.166 350.983C122.022 350.79 121.825 350.631 121.575 350.506C121.325 350.381 121.005 350.318 120.615 350.318C120.081 350.318 119.636 350.441 119.28 350.688C118.928 350.93 118.751 351.239 118.751 351.614C118.751 351.947 118.873 352.21 119.115 352.403C119.357 352.597 119.736 352.758 120.251 352.886L121.547 353.205C122.327 353.394 122.909 353.684 123.291 354.074C123.674 354.46 123.865 354.958 123.865 355.568C123.865 356.068 123.721 356.515 123.433 356.909C123.149 357.303 122.751 357.614 122.24 357.841C121.729 358.068 121.134 358.182 120.456 358.182C119.566 358.182 118.829 357.989 118.246 357.602C117.662 357.216 117.293 356.652 117.138 355.909L118.411 355.591C118.532 356.061 118.761 356.413 119.098 356.648C119.439 356.883 119.884 357 120.433 357C121.058 357 121.554 356.867 121.922 356.602C122.293 356.333 122.479 356.011 122.479 355.636C122.479 355.333 122.373 355.08 122.161 354.875C121.948 354.667 121.623 354.511 121.183 354.409L119.729 354.068C118.929 353.879 118.342 353.585 117.967 353.188C117.596 352.786 117.411 352.284 117.411 351.682C117.411 351.189 117.549 350.754 117.825 350.375C118.106 349.996 118.486 349.699 118.967 349.483C119.452 349.267 120.001 349.159 120.615 349.159C121.479 349.159 122.157 349.348 122.649 349.727C123.145 350.106 123.498 350.606 123.706 351.227Z" fill="white" fill-opacity="0.7"/>
<path d="M28 426C33.5228 426 38 421.523 38 416C38 410.477 33.5228 406 28 406C22.4772 406 18 410.477 18 416C18 421.523 22.4772 426 28 426Z" stroke="white" stroke-opacity="0.7" stroke-width="2" stroke-linecap="round" stroke-linejoin="round"/>
<path d="M38 416H34" stroke="white" stroke-opacity="0.7" stroke-width="2" stroke-linecap="round" stroke-linejoin="round"/>
<path d="M22 416H18" stroke="white" stroke-opacity="0.7" stroke-width="2" stroke-linecap="round" stroke-linejoin="round"/>
<path d="M28 410V406" stroke="white" stroke-opacity="0.7" stroke-width="2" stroke-linecap="round" stroke-linejoin="round"/>
<path d="M28 426V422" stroke="white" stroke-opacity="0.7" stroke-width="2" stroke-linecap="round" stroke-linejoin="round"/>
<path d="M61.3636 414C61.2386 413.617 61.0739 413.275 60.8693 412.972C60.6686 412.665 60.428 412.403 60.1477 412.188C59.8712 411.972 59.5568 411.807 59.2045 411.693C58.8523 411.58 58.4659 411.523 58.0455 411.523C57.3561 411.523 56.7292 411.701 56.1648 412.057C55.6004 412.413 55.1515 412.938 54.8182 413.631C54.4848 414.324 54.3182 415.174 54.3182 416.182C54.3182 417.189 54.4867 418.04 54.8239 418.733C55.161 419.426 55.6174 419.951 56.1932 420.307C56.7689 420.663 57.4167 420.841 58.1364 420.841C58.803 420.841 59.3902 420.699 59.8977 420.415C60.4091 420.127 60.8068 419.722 61.0909 419.199C61.3788 418.672 61.5227 418.053 61.5227 417.341L61.9545 417.432H58.4545V416.182H62.8864V417.432C62.8864 418.39 62.6818 419.223 62.2727 419.932C61.8674 420.64 61.3068 421.189 60.5909 421.58C59.8788 421.966 59.0606 422.159 58.1364 422.159C57.1061 422.159 56.2008 421.917 55.4205 421.432C54.6439 420.947 54.0379 420.258 53.6023 419.364C53.1705 418.47 52.9545 417.409 52.9545 416.182C52.9545 415.261 53.0777 414.434 53.3239 413.699C53.5739 412.96 53.9261 412.331 54.3807 411.812C54.8352 411.294 55.3731 410.896 55.9943 410.619C56.6155 410.343 57.2992 410.205 58.0455 410.205C58.6591 410.205 59.2311 410.297 59.7614 410.483C60.2955 410.665 60.7708 410.924 61.1875 411.261C61.608 411.595 61.9583 411.994 62.2386 412.46C62.5189 412.922 62.7121 413.436 62.8182 414H61.3636ZM68.6634 422.182C67.8755 422.182 67.1842 421.994 66.5895 421.619C65.9986 421.244 65.5365 420.72 65.2031 420.045C64.8736 419.371 64.7088 418.583 64.7088 417.682C64.7088 416.773 64.8736 415.979 65.2031 415.301C65.5365 414.623 65.9986 414.097 66.5895 413.722C67.1842 413.347 67.8755 413.159 68.6634 413.159C69.4512 413.159 70.1406 413.347 70.7315 413.722C71.3262 414.097 71.7884 414.623 72.1179 415.301C72.4512 415.979 72.6179 416.773 72.6179 417.682C72.6179 418.583 72.4512 419.371 72.1179 420.045C71.7884 420.72 71.3262 421.244 70.7315 421.619C70.1406 421.994 69.4512 422.182 68.6634 422.182ZM68.6634 420.977C69.2618 420.977 69.7543 420.824 70.1406 420.517C70.527 420.21 70.813 419.807 70.9986 419.307C71.1842 418.807 71.277 418.265 71.277 417.682C71.277 417.098 71.1842 416.555 70.9986 416.051C70.813 415.547 70.527 415.14 70.1406 414.83C69.7543 414.519 69.2618 414.364 68.6634 414.364C68.0649 414.364 67.5724 414.519 67.1861 414.83C66.7997 415.14 66.5137 415.547 66.3281 416.051C66.1425 416.555 66.0497 417.098 66.0497 417.682C66.0497 418.265 66.1425 418.807 66.3281 419.307C66.5137 419.807 66.7997 420.21 67.1861 420.517C67.5724 420.824 68.0649 420.977 68.6634 420.977ZM77.233 422.205C76.6799 422.205 76.178 422.1 75.7273 421.892C75.2765 421.68 74.9186 421.375 74.6534 420.977C74.3883 420.576 74.2557 420.091 74.2557 419.523C74.2557 419.023 74.3542 418.617 74.5511 418.307C74.7481 417.992 75.0114 417.746 75.3409 417.568C75.6705 417.39 76.0341 417.258 76.4318 417.17C76.8333 417.08 77.2367 417.008 77.642 416.955C78.1723 416.886 78.6023 416.835 78.9318 416.801C79.2652 416.763 79.5076 416.701 79.6591 416.614C79.8144 416.527 79.892 416.375 79.892 416.159V416.114C79.892 415.553 79.7386 415.117 79.4318 414.807C79.1288 414.496 78.6686 414.341 78.0511 414.341C77.411 414.341 76.9091 414.481 76.5455 414.761C76.1818 415.042 75.9261 415.341 75.7784 415.659L74.5057 415.205C74.733 414.674 75.036 414.261 75.4148 413.966C75.7973 413.667 76.214 413.458 76.6648 413.341C77.1193 413.22 77.5663 413.159 78.0057 413.159C78.286 413.159 78.608 413.193 78.9716 413.261C79.339 413.326 79.6932 413.46 80.0341 413.665C80.3788 413.869 80.6648 414.178 80.892 414.591C81.1193 415.004 81.233 415.557 81.233 416.25V422H79.892V420.818H79.8239C79.733 421.008 79.5814 421.21 79.3693 421.426C79.1572 421.642 78.875 421.826 78.5227 421.977C78.1705 422.129 77.7405 422.205 77.233 422.205ZM77.4375 421C77.9678 421 78.4148 420.896 78.7784 420.688C79.1458 420.479 79.4223 420.21 79.608 419.881C79.7973 419.551 79.892 419.205 79.892 418.841V417.614C79.8352 417.682 79.7102 417.744 79.517 417.801C79.3277 417.854 79.108 417.902 78.858 417.943C78.6117 417.981 78.3712 418.015 78.1364 418.045C77.9053 418.072 77.7178 418.095 77.5739 418.114C77.2254 418.159 76.8996 418.233 76.5966 418.335C76.2973 418.434 76.0549 418.583 75.8693 418.784C75.6875 418.981 75.5966 419.25 75.5966 419.591C75.5966 420.057 75.7689 420.409 76.1136 420.648C76.4621 420.883 76.9034 421 77.4375 421ZM85.0213 410.364V422H83.6804V410.364H85.0213ZM93.6591 415.227L92.4545 415.568C92.3788 415.367 92.267 415.172 92.1193 414.983C91.9754 414.79 91.7784 414.631 91.5284 414.506C91.2784 414.381 90.9583 414.318 90.5682 414.318C90.0341 414.318 89.589 414.441 89.233 414.688C88.8807 414.93 88.7045 415.239 88.7045 415.614C88.7045 415.947 88.8258 416.21 89.0682 416.403C89.3106 416.597 89.6894 416.758 90.2045 416.886L91.5 417.205C92.2803 417.394 92.8617 417.684 93.2443 418.074C93.6269 418.46 93.8182 418.958 93.8182 419.568C93.8182 420.068 93.6742 420.515 93.3864 420.909C93.1023 421.303 92.7045 421.614 92.1932 421.841C91.6818 422.068 91.0871 422.182 90.4091 422.182C89.5189 422.182 88.7822 421.989 88.1989 421.602C87.6155 421.216 87.2462 420.652 87.0909 419.909L88.3636 419.591C88.4848 420.061 88.714 420.413 89.0511 420.648C89.392 420.883 89.8371 421 90.3864 421C91.0114 421 91.5076 420.867 91.875 420.602C92.2462 420.333 92.4318 420.011 92.4318 419.636C92.4318 419.333 92.3258 419.08 92.1136 418.875C91.9015 418.667 91.5758 418.511 91.1364 418.409L89.6818 418.068C88.8826 417.879 88.2955 417.585 87.9205 417.188C87.5492 416.786 87.3636 416.284 87.3636 415.682C87.3636 415.189 87.5019 414.754 87.7784 414.375C88.0587 413.996 88.4394 413.699 88.9205 413.483C89.4053 413.267 89.9545 413.159 90.5682 413.159C91.4318 413.159 92.1098 413.348 92.6023 413.727C93.0985 414.106 93.4508 414.606 93.6591 415.227Z" fill="white" fill-opacity="0.7"/>
<path d="M27.9999 482.347C29.2959 482.347 30.3465 481.296 30.3465 480C30.3465 478.704 29.2959 477.653 27.9999 477.653C26.7039 477.653 25.6533 478.704 25.6533 480C25.6533 481.296 26.7039 482.347 27.9999 482.347Z" stroke="white" stroke-opacity="0.7" stroke-width="2" stroke-linecap="round" stroke-linejoin="round"/>
<path d="M34.0545 482.455C33.9456 482.701 33.9131 482.975 33.9613 483.24C34.0094 483.506 34.1359 483.751 34.3245 483.944L34.3736 483.993C34.5258 484.145 34.6465 484.325 34.7288 484.524C34.8112 484.722 34.8536 484.935 34.8536 485.15C34.8536 485.365 34.8112 485.578 34.7288 485.777C34.6465 485.976 34.5258 486.156 34.3736 486.308C34.2217 486.46 34.0412 486.581 33.8425 486.663C33.6439 486.746 33.431 486.788 33.2159 486.788C33.0009 486.788 32.7879 486.746 32.5893 486.663C32.3906 486.581 32.2102 486.46 32.0582 486.308L32.0091 486.259C31.8163 486.07 31.5714 485.944 31.3059 485.896C31.0405 485.848 30.7668 485.88 30.52 485.989C30.278 486.093 30.0716 486.265 29.9263 486.485C29.7809 486.704 29.7029 486.961 29.7018 487.225V487.364C29.7018 487.798 29.5294 488.214 29.2225 488.521C28.9157 488.828 28.4994 489 28.0655 489C27.6315 489 27.2152 488.828 26.9084 488.521C26.6015 488.214 26.4291 487.798 26.4291 487.364V487.29C26.4228 487.019 26.3351 486.757 26.1775 486.536C26.0199 486.316 25.7997 486.148 25.5455 486.055C25.2987 485.946 25.0249 485.913 24.7595 485.961C24.4941 486.009 24.2492 486.136 24.0564 486.325L24.0073 486.374C23.8553 486.526 23.6748 486.646 23.4762 486.729C23.2775 486.811 23.0646 486.854 22.8495 486.854C22.6345 486.854 22.4216 486.811 22.2229 486.729C22.0243 486.646 21.8438 486.526 21.6918 486.374C21.5397 486.222 21.419 486.041 21.3366 485.843C21.2543 485.644 21.2119 485.431 21.2119 485.216C21.2119 485.001 21.2543 484.788 21.3366 484.589C21.419 484.391 21.5397 484.21 21.6918 484.058L21.7409 484.009C21.9295 483.816 22.0561 483.571 22.1042 483.306C22.1523 483.041 22.1198 482.767 22.0109 482.52C21.9072 482.278 21.735 482.072 21.5155 481.926C21.296 481.781 21.0387 481.703 20.7755 481.702H20.6364C20.2024 481.702 19.7862 481.529 19.4793 481.223C19.1724 480.916 19 480.499 19 480.065C19 479.631 19.1724 479.215 19.4793 478.908C19.7862 478.601 20.2024 478.429 20.6364 478.429H20.71C20.9808 478.423 21.2435 478.335 21.4638 478.178C21.6841 478.02 21.8519 477.8 21.9455 477.545C22.0544 477.299 22.0869 477.025 22.0387 476.76C21.9906 476.494 21.8641 476.249 21.6755 476.056L21.6264 476.007C21.4742 475.855 21.3535 475.675 21.2712 475.476C21.1888 475.278 21.1464 475.065 21.1464 474.85C21.1464 474.635 21.1888 474.422 21.2712 474.223C21.3535 474.024 21.4742 473.844 21.6264 473.692C21.7783 473.54 21.9588 473.419 22.1575 473.337C22.3561 473.254 22.569 473.212 22.7841 473.212C22.9991 473.212 23.2121 473.254 23.4107 473.337C23.6094 473.419 23.7898 473.54 23.9418 473.692L23.9909 473.741C24.1837 473.93 24.4286 474.056 24.6941 474.104C24.9595 474.152 25.2332 474.12 25.48 474.011H25.5455C25.7874 473.907 25.9938 473.735 26.1392 473.515C26.2846 473.296 26.3626 473.039 26.3636 472.775V472.636C26.3636 472.202 26.536 471.786 26.8429 471.479C27.1498 471.172 27.566 471 28 471C28.434 471 28.8502 471.172 29.1571 471.479C29.464 471.786 29.6364 472.202 29.6364 472.636V472.71C29.6374 472.973 29.7154 473.231 29.8608 473.45C30.0062 473.67 30.2126 473.842 30.4545 473.945C30.7013 474.054 30.9751 474.087 31.2405 474.039C31.5059 473.991 31.7508 473.864 31.9436 473.675L31.9927 473.626C32.1447 473.474 32.3252 473.354 32.5238 473.271C32.7225 473.189 32.9354 473.146 33.1505 473.146C33.3655 473.146 33.5784 473.189 33.7771 473.271C33.9757 473.354 34.1562 473.474 34.3082 473.626C34.4603 473.778 34.581 473.959 34.6634 474.157C34.7457 474.356 34.7881 474.569 34.7881 474.784C34.7881 474.999 34.7457 475.212 34.6634 475.411C34.581 475.609 34.4603 475.79 34.3082 475.942L34.2591 475.991C34.0705 476.184 33.9439 476.429 33.8958 476.694C33.8477 476.959 33.8802 477.233 33.9891 477.48V477.545C34.0928 477.787 34.265 477.994 34.4845 478.139C34.704 478.285 34.9613 478.363 35.2245 478.364H35.3636C35.7976 478.364 36.2138 478.536 36.5207 478.843C36.8276 479.15 37 479.566 37 480C37 480.434 36.8276 480.85 36.5207 481.157C36.2138 481.464 35.7976 481.636 35.3636 481.636H35.29C35.0267 481.637 34.7695 481.715 34.55 481.861C34.3305 482.006 34.1583 482.213 34.0545 482.455V482.455Z" stroke="white" stroke-opacity="0.7" stroke-width="2" stroke-linecap="round" stroke-linejoin="round"/>
<path d="M59.7727 477.273C59.7045 476.697 59.428 476.25 58.9432 475.932C58.4583 475.614 57.8636 475.455 57.1591 475.455C56.6439 475.455 56.1932 475.538 55.8068 475.705C55.4242 475.871 55.125 476.1 54.9091 476.392C54.697 476.684 54.5909 477.015 54.5909 477.386C54.5909 477.697 54.6648 477.964 54.8125 478.188C54.964 478.407 55.1572 478.591 55.392 478.739C55.6269 478.883 55.8731 479.002 56.1307 479.097C56.3883 479.187 56.625 479.261 56.8409 479.318L58.0227 479.636C58.3258 479.716 58.6629 479.826 59.0341 479.966C59.4091 480.106 59.767 480.297 60.108 480.54C60.4527 480.778 60.7367 481.085 60.9602 481.46C61.1837 481.835 61.2955 482.295 61.2955 482.841C61.2955 483.47 61.1307 484.038 60.8011 484.545C60.4754 485.053 59.9981 485.456 59.3693 485.756C58.7443 486.055 57.9848 486.205 57.0909 486.205C56.2576 486.205 55.536 486.07 54.9261 485.801C54.3201 485.532 53.8428 485.157 53.4943 484.676C53.1496 484.195 52.9545 483.636 52.9091 483H54.3636C54.4015 483.439 54.5492 483.803 54.8068 484.091C55.0682 484.375 55.3977 484.587 55.7955 484.727C56.197 484.864 56.6288 484.932 57.0909 484.932C57.6288 484.932 58.1117 484.845 58.5398 484.67C58.9678 484.492 59.3068 484.246 59.5568 483.932C59.8068 483.614 59.9318 483.242 59.9318 482.818C59.9318 482.432 59.8239 482.117 59.608 481.875C59.392 481.633 59.108 481.436 58.7557 481.284C58.4034 481.133 58.0227 481 57.6136 480.886L56.1818 480.477C55.2727 480.216 54.553 479.843 54.0227 479.358C53.4924 478.873 53.2273 478.239 53.2273 477.455C53.2273 476.803 53.4034 476.235 53.7557 475.75C54.1117 475.261 54.589 474.883 55.1875 474.614C55.7898 474.341 56.4621 474.205 57.2045 474.205C57.9545 474.205 58.6212 474.339 59.2045 474.608C59.7879 474.873 60.25 475.237 60.5909 475.699C60.9356 476.161 61.1174 476.686 61.1364 477.273H59.7727ZM67.0895 486.182C66.2486 486.182 65.5232 485.996 64.9134 485.625C64.3073 485.25 63.8395 484.727 63.5099 484.057C63.1842 483.383 63.0213 482.598 63.0213 481.705C63.0213 480.811 63.1842 480.023 63.5099 479.341C63.8395 478.655 64.2978 478.121 64.8849 477.739C65.4759 477.352 66.1652 477.159 66.9531 477.159C67.4077 477.159 67.8565 477.235 68.2997 477.386C68.7429 477.538 69.1463 477.784 69.5099 478.125C69.8736 478.462 70.1634 478.909 70.3793 479.466C70.5952 480.023 70.7031 480.708 70.7031 481.523V482.091H63.9759V480.932H69.3395C69.3395 480.439 69.241 480 69.044 479.614C68.8509 479.227 68.5743 478.922 68.2145 478.699C67.8584 478.475 67.438 478.364 66.9531 478.364C66.419 478.364 65.9569 478.496 65.5668 478.761C65.1804 479.023 64.883 479.364 64.6747 479.784C64.4664 480.205 64.3622 480.655 64.3622 481.136V481.909C64.3622 482.568 64.4759 483.127 64.7031 483.585C64.9342 484.04 65.2543 484.386 65.6634 484.625C66.0724 484.86 66.5478 484.977 67.0895 484.977C67.4418 484.977 67.7599 484.928 68.044 484.83C68.3319 484.727 68.58 484.576 68.7884 484.375C68.9967 484.17 69.1577 483.917 69.2713 483.614L70.5668 483.977C70.4304 484.417 70.2012 484.803 69.8793 485.136C69.5573 485.466 69.1596 485.723 68.6861 485.909C68.2126 486.091 67.6804 486.182 67.0895 486.182ZM76.5384 477.273V478.409H72.0156V477.273H76.5384ZM73.3338 475.182H74.6747V483.5C74.6747 483.879 74.7296 484.163 74.8395 484.352C74.9531 484.538 75.0971 484.663 75.2713 484.727C75.4493 484.788 75.6368 484.818 75.8338 484.818C75.9815 484.818 76.1027 484.811 76.1974 484.795C76.2921 484.777 76.3679 484.761 76.4247 484.75L76.6974 485.955C76.6065 485.989 76.4796 486.023 76.3168 486.057C76.1539 486.095 75.9474 486.114 75.6974 486.114C75.3187 486.114 74.9474 486.032 74.5838 485.869C74.224 485.706 73.9247 485.458 73.6861 485.125C73.4512 484.792 73.3338 484.371 73.3338 483.864V475.182ZM82.3509 477.273V478.409H77.8281V477.273H82.3509ZM79.1463 475.182H80.4872V483.5C80.4872 483.879 80.5421 484.163 80.652 484.352C80.7656 484.538 80.9096 484.663 81.0838 484.727C81.2618 484.788 81.4493 484.818 81.6463 484.818C81.794 484.818 81.9152 484.811 82.0099 484.795C82.1046 484.777 82.1804 484.761 82.2372 484.75L82.5099 485.955C82.419 485.989 82.2921 486.023 82.1293 486.057C81.9664 486.095 81.7599 486.114 81.5099 486.114C81.1312 486.114 80.7599 486.032 80.3963 485.869C80.0365 485.706 79.7372 485.458 79.4986 485.125C79.2637 484.792 79.1463 484.371 79.1463 483.864V475.182ZM84.3679 486V477.273H85.7088V486H84.3679ZM85.0497 475.818C84.7884 475.818 84.563 475.729 84.3736 475.551C84.188 475.373 84.0952 475.159 84.0952 474.909C84.0952 474.659 84.188 474.445 84.3736 474.267C84.563 474.089 84.7884 474 85.0497 474C85.3111 474 85.5346 474.089 85.7202 474.267C85.9096 474.445 86.0043 474.659 86.0043 474.909C86.0043 475.159 85.9096 475.373 85.7202 475.551C85.5346 475.729 85.3111 475.818 85.0497 475.818ZM89.5057 480.75V486H88.1648V477.273H89.4602V478.636H89.5739C89.7784 478.193 90.089 477.837 90.5057 477.568C90.9223 477.295 91.4602 477.159 92.1193 477.159C92.7102 477.159 93.2273 477.28 93.6705 477.523C94.1136 477.761 94.4583 478.125 94.7045 478.614C94.9508 479.098 95.0739 479.712 95.0739 480.455V486H93.733V480.545C93.733 479.86 93.5549 479.326 93.1989 478.943C92.8428 478.557 92.3542 478.364 91.733 478.364C91.3049 478.364 90.9223 478.456 90.5852 478.642C90.2519 478.828 89.9886 479.098 89.7955 479.455C89.6023 479.811 89.5057 480.242 89.5057 480.75ZM101.047 489.455C100.399 489.455 99.8423 489.371 99.3764 489.205C98.9105 489.042 98.5223 488.826 98.2116 488.557C97.9048 488.292 97.6605 488.008 97.4787 487.705L98.5469 486.955C98.6681 487.114 98.8215 487.295 99.0071 487.5C99.1927 487.708 99.4465 487.888 99.7685 488.04C100.094 488.195 100.52 488.273 101.047 488.273C101.751 488.273 102.333 488.102 102.791 487.761C103.25 487.42 103.479 486.886 103.479 486.159V484.386H103.365C103.267 484.545 103.126 484.742 102.945 484.977C102.767 485.208 102.509 485.415 102.172 485.597C101.839 485.775 101.388 485.864 100.82 485.864C100.115 485.864 99.4825 485.697 98.9219 485.364C98.3651 485.03 97.9238 484.545 97.598 483.909C97.276 483.273 97.1151 482.5 97.1151 481.591C97.1151 480.697 97.2723 479.919 97.5866 479.256C97.901 478.589 98.3385 478.074 98.8991 477.71C99.4598 477.343 100.107 477.159 100.842 477.159C101.411 477.159 101.861 477.254 102.195 477.443C102.532 477.629 102.789 477.841 102.967 478.08C103.149 478.314 103.289 478.508 103.388 478.659H103.524V477.273H104.82V486.25C104.82 487 104.649 487.61 104.308 488.08C103.971 488.553 103.517 488.9 102.945 489.119C102.376 489.343 101.744 489.455 101.047 489.455ZM101.001 484.659C101.539 484.659 101.994 484.536 102.365 484.29C102.736 484.044 103.018 483.689 103.212 483.227C103.405 482.765 103.501 482.212 103.501 481.568C103.501 480.939 103.407 480.384 103.217 479.903C103.028 479.422 102.748 479.045 102.376 478.773C102.005 478.5 101.547 478.364 101.001 478.364C100.433 478.364 99.9598 478.508 99.581 478.795C99.206 479.083 98.9238 479.47 98.7344 479.955C98.5488 480.439 98.456 480.977 98.456 481.568C98.456 482.174 98.5507 482.71 98.7401 483.176C98.9332 483.638 99.2173 484.002 99.5923 484.267C99.9711 484.528 100.441 484.659 101.001 484.659ZM113.456 479.227L112.251 479.568C112.176 479.367 112.064 479.172 111.916 478.983C111.772 478.79 111.575 478.631 111.325 478.506C111.075 478.381 110.755 478.318 110.365 478.318C109.831 478.318 109.386 478.441 109.03 478.688C108.678 478.93 108.501 479.239 108.501 479.614C108.501 479.947 108.623 480.21 108.865 480.403C109.107 480.597 109.486 480.758 110.001 480.886L111.297 481.205C112.077 481.394 112.659 481.684 113.041 482.074C113.424 482.46 113.615 482.958 113.615 483.568C113.615 484.068 113.471 484.515 113.183 484.909C112.899 485.303 112.501 485.614 111.99 485.841C111.479 486.068 110.884 486.182 110.206 486.182C109.316 486.182 108.579 485.989 107.996 485.602C107.412 485.216 107.043 484.652 106.888 483.909L108.161 483.591C108.282 484.061 108.511 484.413 108.848 484.648C109.189 484.883 109.634 485 110.183 485C110.808 485 111.304 484.867 111.672 484.602C112.043 484.333 112.229 484.011 112.229 483.636C112.229 483.333 112.123 483.08 111.911 482.875C111.698 482.667 111.373 482.511 110.933 482.409L109.479 482.068C108.679 481.879 108.092 481.585 107.717 481.188C107.346 480.786 107.161 480.284 107.161 479.682C107.161 479.189 107.299 478.754 107.575 478.375C107.856 477.996 108.236 477.699 108.717 477.483C109.202 477.267 109.751 477.159 110.365 477.159C111.229 477.159 111.907 477.348 112.399 477.727C112.895 478.106 113.248 478.606 113.456 479.227Z" fill="white" fill-opacity="0.7"/>
</svg>
